<?xml version="1.0" encoding="UTF-8"?>
<svg width="15px" height="15px" viewBox="0 0 15 15" version="1.1" xmlns="http://www.w3.org/2000/svg" xmlns:xlink="http://www.w3.org/1999/xlink">
    <title>Path</title>
    <g id="Symbols" stroke="none" stroke-width="1" fill="none" fill-rule="evenodd">
        <g id="share-facebook-button" transform="translate(-15.000000, -12.000000)" fill="#3B5A98" fill-rule="nonzero">
            <path d="M30,12.8270089 L30,26.1696429 C30,26.6283482 29.6283482,26.9966518 29.1729911,26.9966518 L25.3493304,26.9966518 L25.3493304,21.1908482 L27.2979911,21.1908482 L27.5892857,18.9274554 L25.3459821,18.9274554 L25.3459821,17.4810268 C25.3459821,16.8247768 25.5267857,16.3794643 26.4676339,16.3794643 L27.6662946,16.3794643 L27.6662946,14.3537946 C27.4587054,14.3270089 26.7488839,14.2633929 25.9185268,14.2633929 C24.1908482,14.2633929 23.0055804,15.3180804 23.0055804,17.2566964 L23.0055804,18.9274554 L21.0502232,18.9274554 L21.0502232,21.1908482 L23.0055804,21.1908482 L23.0055804,27 L15.8270089,27 C15.3716518,27 15,26.6283482 15,26.1729911 L15,12.8270089 C15,12.3716518 15.3716518,12 15.8270089,12 L29.1696429,12 C29.6283482,12 30,12.3716518 30,12.8270089 Z" id="Path"></path>
        </g>
    </g>
</svg>