<?xml version="1.0" encoding="UTF-8"?>
<svg width="15px" height="15px" viewBox="0 0 15 15" version="1.1" xmlns="http://www.w3.org/2000/svg" xmlns:xlink="http://www.w3.org/1999/xlink">
    <title>Shape</title>
    <g id="Symbols" stroke="none" stroke-width="1" fill="none" fill-rule="evenodd">
        <g id="share-linkedin-button" transform="translate(-15.000000, -12.000000)" fill="#0077B5" fill-rule="nonzero">
            <path d="M28.8002925,12 L16.2816925,12 C15.5976544,12 15,12.4921875 15,13.168192 L15,25.7146205 C15,26.394308 15.5976544,27 16.2816925,27 L28.7966095,27 C29.4843306,27 29.9999771,26.3902902 29.9999771,25.7146205 L29.9999771,13.168192 C30.0039718,12.4921875 29.4843306,12 28.8002925,12 Z M19.6496509,24.5032366 L17.5007736,24.5032366 L17.5007736,17.821875 L19.6496509,17.821875 L19.6496509,24.5032366 Z M18.6495424,16.8060268 L18.6341406,16.8060268 C17.9464195,16.8060268 17.5011084,16.2940848 17.5011084,15.6532366 C17.5011084,15.0006696 17.9581382,14.5007812 18.6612611,14.5007812 C19.3643839,14.5007812 19.7946281,14.9969866 19.8100299,15.6532366 C19.8096951,16.2940848 19.3643839,16.8060268 18.6495424,16.8060268 Z M27.5031982,24.5032366 L25.3543209,24.5032366 L25.3543209,20.85 C25.3543209,19.9747768 25.0415987,19.3767857 24.2641457,19.3767857 C23.6701743,19.3767857 23.3186129,19.7785714 23.1622517,20.1699777 C23.1036582,20.3106027 23.0879216,20.5021205 23.0879216,20.6976562 L23.0879216,24.5032366 L20.9390443,24.5032366 L20.9390443,17.821875 L23.0879216,17.821875 L23.0879216,18.7516741 C23.4006439,18.3063616 23.8891468,17.6655134 25.0258621,17.6655134 C26.4364605,17.6655134 27.5035331,18.5953125 27.5035331,20.5998884 L27.5031982,24.5032366 Z" id="Shape"></path>
        </g>
    </g>
</svg>