<?xml version="1.0" encoding="UTF-8"?>
<svg width="31px" height="30px" viewBox="0 0 31 30" version="1.1" xmlns="http://www.w3.org/2000/svg" xmlns:xlink="http://www.w3.org/1999/xlink">
    <!-- Generator: Sketch 63.1 (92452) - https://sketch.com -->
    <title>mobile-share on linkedin icon</title>
    <desc>Created with Sketch.</desc>
    <g id="Mobile" stroke="none" stroke-width="1" fill="none" fill-rule="evenodd">
        <g id="Article-page" transform="translate(-88.000000, -680.000000)" fill="#0077B5" fill-rule="nonzero">
            <g id="Article" transform="translate(0.000000, 100.000000)">
                <g id="social-icons" transform="translate(0.000000, 334.000000)">
                    <g id="mobile-share-on-linkedin-icon-2" transform="translate(86.000000, 244.000000)">
                        <path d="M8.71651786,32 L2.49553571,32 L2.49553571,11.9709821 L8.71651786,11.9709821 L8.71651786,32 Z M5.60267857,9.23883929 C3.61383929,9.23883929 2,7.59151786 2,5.60267857 C2,3.61383929 3.61383929,2 5.60267857,2 C7.59151786,2 9.20535714,3.61383929 9.20535714,5.60267857 C9.20535714,7.59151786 7.59151786,9.23883929 5.60267857,9.23883929 Z M32,32 L25.7924107,32 L25.7924107,22.25 C25.7924107,19.9263393 25.7455357,16.9464286 22.5580357,16.9464286 C19.3236607,16.9464286 18.828125,19.4709821 18.828125,22.0825893 L18.828125,32 L12.6138393,32 L12.6138393,11.9709821 L18.5803571,11.9709821 L18.5803571,14.703125 L18.6674107,14.703125 C19.4977679,13.1294643 21.5267857,11.46875 24.5535714,11.46875 C30.8482143,11.46875 32.0066964,15.6138393 32.0066964,20.9977679 L32.0066964,32 L32,32 Z" id="Shape"></path>
                    </g>
                </g>
            </g>
        </g>
    </g>
</svg>