<?xml version="1.0" encoding="UTF-8"?>
<svg width="40px" height="35px" viewBox="0 0 40 35" version="1.1" xmlns="http://www.w3.org/2000/svg" xmlns:xlink="http://www.w3.org/1999/xlink">
    <title>mobile-share on twitter icon</title>
    <g id="mobile-share-on-twitter-icon" stroke="none" stroke-width="1" fill="none" fill-rule="evenodd">
        <path d="M38,6.31771031 C36.6871035,6.88817386 35.2979903,7.26400703 33.8765625,7.43333182 C35.3703832,6.55861101 36.4937741,5.1689604 37.0360417,3.52501072 C35.6237155,4.35085619 34.0811352,4.93030828 32.474375,5.23854702 C31.107041,3.80554905 29.2116154,2.99635164 27.2309375,3 C23.2628125,3 20.0515625,6.16458579 20.0515625,10.0656152 C20.048749,10.6082337 20.1109279,11.1492367 20.2367708,11.6770685 C14.4832129,11.4073446 9.10960092,8.72584117 5.4346875,4.29063332 C4.79708582,5.36550926 4.45988801,6.59190821 4.45833333,7.84166387 C4.45833333,10.2916562 5.7365625,12.4572744 7.66666667,13.7260204 C6.52313487,13.6988815 5.40303494,13.3962203 4.40145833,12.8437315 L4.40145833,12.9312313 C4.40145833,16.3583039 6.880625,19.2093366 10.161875,19.8582929 C9.54484205,20.0227793 8.9089976,20.1061203 8.27041667,20.1062088 C7.81729702,20.1069989 7.36520698,20.0630357 6.92072917,19.9749592 C7.83291667,22.7822421 10.4878125,24.8239024 13.6327083,24.8822355 C11.0772552,26.8516534 7.93982598,27.9160983 4.71354167,27.9082677 C4.14086728,27.907416 3.5687249,27.873331 3,27.8061847 C6.28211015,29.9019613 10.0973035,31.0105254 13.9914583,31 C27.215625,31 34.4402083,20.2301667 34.4402083,10.889571 C34.4402083,10.583322 34.4321875,10.2770729 34.4176042,9.97811551 C35.8198569,8.98066176 37.0329817,7.74112026 38,6.31771031 Z" id="Path" fill="#1DA1F2" fill-rule="nonzero"></path>
    </g>
</svg>